<?xml version="1.0" encoding="UTF-8" standalone="no"?>
<!-- Created with Inkscape (http://www.inkscape.org/) -->

<svg
   width="60mm"
   height="105mm"
   viewBox="0 0 60 105"
   version="1.1"
   id="svg1"
   inkscape:version="1.3.2 (091e20e, 2023-11-25, custom)"
   sodipodi:docname="Wiha Baseplate Phillips Slotted 7pc.svg"
   xml:space="preserve"
   inkscape:export-filename="Wiha Screwdriver Holder Plate engrave.png"
   inkscape:export-xdpi="600"
   inkscape:export-ydpi="600"
   xmlns:inkscape="http://www.inkscape.org/namespaces/inkscape"
   xmlns:sodipodi="http://sodipodi.sourceforge.net/DTD/sodipodi-0.dtd"
   xmlns="http://www.w3.org/2000/svg"
   xmlns:svg="http://www.w3.org/2000/svg"><sodipodi:namedview
     id="namedview1"
     pagecolor="#ffffff"
     bordercolor="#000000"
     borderopacity="0.25"
     inkscape:showpageshadow="2"
     inkscape:pageopacity="0.0"
     inkscape:pagecheckerboard="0"
     inkscape:deskcolor="#d1d1d1"
     inkscape:document-units="mm"
     inkscape:zoom="5.6568542"
     inkscape:cx="112.2532"
     inkscape:cy="278.33491"
     inkscape:window-width="2560"
     inkscape:window-height="1369"
     inkscape:window-x="2552"
     inkscape:window-y="-8"
     inkscape:window-maximized="1"
     inkscape:current-layer="layer1"
     showguides="true"><sodipodi:guide
       position="20.000235,38.500108"
       orientation="1,0"
       id="guide14"
       inkscape:locked="false" /><sodipodi:guide
       position="9.9999981,42.056641"
       orientation="1,0"
       id="guide15"
       inkscape:locked="false" /><sodipodi:guide
       position="-9.2651364e-08,52.499999"
       orientation="0,-1"
       id="guide34"
       inkscape:locked="false" /><sodipodi:guide
       position="39.999762,63.000107"
       orientation="1,0"
       id="guide35"
       inkscape:locked="false" /><sodipodi:guide
       position="39.999762,89.999998"
       orientation="0,-1"
       id="guide1"
       inkscape:locked="false" /><sodipodi:guide
       position="38.499762,65"
       orientation="0,-1"
       id="guide2"
       inkscape:locked="false" /></sodipodi:namedview><defs
     id="defs1"><inkscape:path-effect
       effect="fillet_chamfer"
       id="path-effect3"
       is_visible="true"
       lpeversion="1"
       nodesatellites_param="F,0,0,1,0,0,0,1 @ F,0,0,1,0,0,0,1 @ F,0,0,1,0,0,0,1 @ F,0,0,1,0,0,0,1"
       radius="0"
       unit="px"
       method="auto"
       mode="F"
       chamfer_steps="1"
       flexible="false"
       use_knot_distance="true"
       apply_no_radius="true"
       apply_with_radius="true"
       only_selected="false"
       hide_knots="false" /><marker
       id="DistanceX"
       orient="auto"
       refX="0.0"
       refY="0.0"
       style="overflow:visible"><path
         d="M 3,-3 L -3,3 M 0,-5 L  0,5"
         style="stroke:#000000; stroke-width:0.5"
         id="path1-88" /></marker><pattern
       id="Hatch"
       patternUnits="userSpaceOnUse"
       width="8"
       height="8"
       x="0"
       y="0"><path
         d="M8 4 l-4,4"
         stroke="#000000"
         stroke-width="0.25"
         linecap="square"
         id="path2" /><path
         d="M6 2 l-4,4"
         stroke="#000000"
         stroke-width="0.25"
         linecap="square"
         id="path3-8" /><path
         d="M4 0 l-4,4"
         stroke="#000000"
         stroke-width="0.25"
         linecap="square"
         id="path4" /></pattern><symbol
       id="*MODEL_SPACE" /><symbol
       id="*PAPER_SPACE" /><marker
       id="DistanceX-8"
       orient="auto"
       refX="0.0"
       refY="0.0"
       style="overflow:visible"><path
         d="M 3,-3 L -3,3 M 0,-5 L  0,5"
         style="stroke:#000000; stroke-width:0.5"
         id="path1-5" /></marker><pattern
       id="Hatch-2"
       patternUnits="userSpaceOnUse"
       width="8"
       height="8"
       x="0"
       y="0"><path
         d="M8 4 l-4,4"
         stroke="#000000"
         stroke-width="0.25"
         linecap="square"
         id="path2-5" /><path
         d="M6 2 l-4,4"
         stroke="#000000"
         stroke-width="0.25"
         linecap="square"
         id="path3-56" /><path
         d="M4 0 l-4,4"
         stroke="#000000"
         stroke-width="0.25"
         linecap="square"
         id="path4-7" /></pattern><symbol
       id="*MODEL_SPACE-4" /><symbol
       id="*PAPER_SPACE-9" /></defs><g
     inkscape:label="Layer 1"
     inkscape:groupmode="layer"
     id="layer1"
     transform="translate(-20.000002,-7.5000019)"><circle
       style="vector-effect:non-scaling-stroke;fill:none;stroke:#000000;stroke-width:0.0418247;stroke-opacity:1;-inkscape-stroke:hairline"
       id="path1"
       cx="59.999763"
       cy="22.500004"
       r="1.5" /><circle
       style="vector-effect:non-scaling-stroke;fill:none;stroke:#000000;stroke-width:0.0348539;stroke-opacity:1;-inkscape-stroke:hairline"
       id="path1-8"
       cx="59.999763"
       cy="47.5"
       r="1.25" /><circle
       style="vector-effect:non-scaling-stroke;fill:none;stroke:#000000;stroke-width:0.0278831;stroke-opacity:1;-inkscape-stroke:hairline"
       id="path1-8-6"
       cx="59.999763"
       cy="72.5"
       r="1" /><circle
       style="vector-effect:non-scaling-stroke;fill:none;stroke:#000000;stroke-width:0.0278831;stroke-opacity:1;-inkscape-stroke:hairline"
       id="path1-8-6-2"
       cx="59.999763"
       cy="97.5"
       r="1" /><circle
       style="vector-effect:non-scaling-stroke;fill:none;stroke:#000000;stroke-width:0.0557662;stroke-opacity:1;-inkscape-stroke:hairline"
       id="path1-9"
       cx="40.045029"
       cy="35"
       r="2" /><circle
       style="vector-effect:non-scaling-stroke;fill:none;stroke:#000000;stroke-width:0.0418247;stroke-opacity:1;-inkscape-stroke:hairline"
       id="path1-8-2"
       cx="40.000237"
       cy="60.000004"
       r="1.5" /><circle
       style="vector-effect:non-scaling-stroke;fill:none;stroke:#000000;stroke-width:0.0278831;stroke-opacity:1;-inkscape-stroke:hairline"
       id="path1-8-6-3"
       cx="40.000237"
       cy="85"
       r="1" /><rect
       style="vector-effect:non-scaling-stroke;fill:none;stroke:#000000;stroke-width:0.223576;stroke-opacity:1;-inkscape-stroke:hairline"
       id="rect3"
       width="60"
       height="105"
       x="20.000002"
       y="7.5000019"
       ry="6.2680225" /><g
       id="g9"
       transform="translate(-0.06621026,12.512571)"><path
         style="color:#000000;fill:#ff0000;-inkscape-stroke:none"
         d="m 30,17.769531 c -1.487954,0 -2.699219,1.211265 -2.699219,2.699219 0,1.487954 1.211265,2.697266 2.699219,2.697266 1.487954,0 2.699219,-1.209312 2.699219,-2.697266 0,-1.487954 -1.211265,-2.699219 -2.699219,-2.699219 z m 0,0.396485 c 1.273467,0 2.300781,1.029267 2.300781,2.302734 0,1.273467 -1.027314,2.300781 -2.300781,2.300781 -1.273467,0 -2.300781,-1.027314 -2.300781,-2.300781 0,-1.273467 1.027314,-2.302734 2.300781,-2.302734 z"
         id="path3" /><path
         style="color:#000000;fill:#ff0000;-inkscape-stroke:none"
         d="m 30,18.728516 c -0.210323,0 -0.386719,0.176396 -0.386719,0.386718 v 2.707032 c 0,0.210322 0.176396,0.384765 0.386719,0.384765 0.210323,0 0.386719,-0.174443 0.386719,-0.384765 v -2.707032 c 0,-0.210322 -0.176396,-0.386718 -0.386719,-0.386718 z"
         id="rect4" /><path
         style="color:#000000;fill:#ff0000;-inkscape-stroke:none"
         d="m 20.46875,-31.740234 c -0.210323,0 -0.386719,0.176396 -0.386719,0.386718 v 2.707032 c 0,0.210322 0.176396,0.384765 0.386719,0.384765 0.210323,0 0.384766,-0.174443 0.384766,-0.384765 v -2.707032 c 0,-0.210322 -0.174443,-0.386718 -0.384766,-0.386718 z"
         id="rect4-1"
         transform="rotate(90)" /><text
         xml:space="preserve"
         style="font-style:normal;font-variant:normal;font-weight:900;font-stretch:normal;font-size:4.23333px;font-family:'Titillium Web';-inkscape-font-specification:'Titillium Web Heavy';text-align:center;text-anchor:middle;fill:#ff0000;fill-opacity:1;stroke:none;stroke-width:1.74279;stroke-dasharray:none"
         x="32.291534"
         y="25.401325"
         id="text4"
         transform="scale(0.93368939,1.07102)"><tspan
           sodipodi:role="line"
           id="tspan4"
           style="font-style:normal;font-variant:normal;font-weight:600;font-stretch:normal;font-size:4.23333px;font-family:'Titillium Web';-inkscape-font-specification:'Titillium Web Semi-Bold';fill:#ff0000;fill-opacity:1;stroke:none;stroke-width:1.74279"
           x="32.291534"
           y="25.401325">PH1</tspan></text></g><g
       id="g11"
       transform="translate(-0.06614565,12.512906)"><g
         id="g10"><path
           style="color:#000000;fill:#ff0000;-inkscape-stroke:none"
           d="m 30,42.744141 c -1.487954,0 -2.699219,1.211264 -2.699219,2.699218 0,1.487954 1.211265,2.699219 2.699219,2.699219 1.487954,0 2.699219,-1.211265 2.699219,-2.699219 0,-1.487954 -1.211265,-2.699218 -2.699219,-2.699218 z m 0,0.398437 c 1.273467,0 2.300781,1.027314 2.300781,2.300781 0,1.273467 -1.027314,2.300782 -2.300781,2.300782 -1.273467,0 -2.300781,-1.027315 -2.300781,-2.300782 0,-1.273467 1.027314,-2.300781 2.300781,-2.300781 z"
           id="path3-0" /><path
           style="color:#000000;fill:#ff0000;-inkscape-stroke:none"
           d="m 30,43.703125 c -0.210323,0 -0.386719,0.176396 -0.386719,0.386719 v 2.707031 c 0,0.210323 0.176396,0.384766 0.386719,0.384766 0.210323,0 0.386719,-0.174443 0.386719,-0.384766 v -2.707031 c 0,-0.210323 -0.176396,-0.386719 -0.386719,-0.386719 z"
           id="rect4-14" /><path
           style="color:#000000;fill:#ff0000;-inkscape-stroke:none"
           d="m 45.443359,-31.740234 c -0.210322,0 -0.386718,0.176396 -0.386718,0.386718 v 2.707032 c 0,0.210322 0.176396,0.384765 0.386718,0.384765 0.210323,0 0.386719,-0.174443 0.386719,-0.384765 v -2.707032 c 0,-0.210322 -0.176396,-0.386718 -0.386719,-0.386718 z"
           id="rect4-1-3"
           transform="rotate(90)" /></g><text
         xml:space="preserve"
         style="font-style:normal;font-variant:normal;font-weight:900;font-stretch:normal;font-size:4.23333px;font-family:'Titillium Web';-inkscape-font-specification:'Titillium Web Heavy';text-align:center;text-anchor:middle;fill:#ff0000;fill-opacity:1;stroke:none;stroke-width:1.74279;stroke-dasharray:none"
         x="32.029068"
         y="48.720081"
         id="text4-1"
         transform="scale(0.93368939,1.07102)"><tspan
           sodipodi:role="line"
           id="tspan4-4"
           style="font-style:normal;font-variant:normal;font-weight:600;font-stretch:normal;font-size:4.23333px;font-family:'Titillium Web';-inkscape-font-specification:'Titillium Web Semi-Bold';fill:#ff0000;fill-opacity:1;stroke:none;stroke-width:1.74279"
           x="32.029068"
           y="48.720081">PH0</tspan></text></g><g
       id="g13"
       transform="translate(6.3981953e-5,12.512901)"><g
         id="g12"><path
           style="color:#000000;fill:#ff0000;-inkscape-stroke:none"
           d="m 30,67.744141 c -1.487954,0 -2.699219,1.211264 -2.699219,2.699218 0,1.487954 1.211265,2.699219 2.699219,2.699219 1.487954,0 2.699219,-1.211265 2.699219,-2.699219 0,-1.487954 -1.211265,-2.699218 -2.699219,-2.699218 z m 0,0.398437 c 1.273467,0 2.300781,1.027314 2.300781,2.300781 0,1.273467 -1.027314,2.300782 -2.300781,2.300782 -1.273467,0 -2.300781,-1.027315 -2.300781,-2.300782 0,-1.273467 1.027314,-2.300781 2.300781,-2.300781 z"
           id="path3-2" /><path
           style="color:#000000;fill:#ff0000;-inkscape-stroke:none"
           d="m 30,68.703125 c -0.210323,0 -0.386719,0.176396 -0.386719,0.386719 v 2.707031 c 0,0.210323 0.176396,0.384766 0.386719,0.384766 0.210323,0 0.386719,-0.174443 0.386719,-0.384766 v -2.707031 c 0,-0.210323 -0.176396,-0.386719 -0.386719,-0.386719 z"
           id="rect4-4" /><path
           style="color:#000000;fill:#ff0000;-inkscape-stroke:none"
           d="m 70.443359,-31.740234 c -0.210322,0 -0.386718,0.176396 -0.386718,0.386718 v 2.707032 c 0,0.210322 0.176396,0.384765 0.386718,0.384765 0.210323,0 0.386719,-0.174443 0.386719,-0.384765 v -2.707032 c 0,-0.210322 -0.176396,-0.386718 -0.386719,-0.386718 z"
           id="rect4-1-4"
           transform="rotate(90)" /></g><text
         xml:space="preserve"
         style="font-style:normal;font-variant:normal;font-weight:900;font-stretch:normal;font-size:4.23333px;font-family:'Titillium Web';-inkscape-font-specification:'Titillium Web Heavy';text-align:center;text-anchor:middle;fill:#ff0000;fill-opacity:1;stroke:none;stroke-width:1.74279;stroke-dasharray:none"
         x="32.028999"
         y="72.062317"
         id="text4-8"
         transform="scale(0.93368939,1.07102)"><tspan
           sodipodi:role="line"
           id="tspan4-5"
           style="font-style:normal;font-variant:normal;font-weight:600;font-stretch:normal;font-size:4.23333px;font-family:'Titillium Web';-inkscape-font-specification:'Titillium Web Semi-Bold';fill:#ff0000;fill-opacity:1;stroke:none;stroke-width:1.74279"
           x="32.028999"
           y="72.062317">PH00</tspan></text></g><g
       id="g5"
       transform="translate(0,0.01597266)"><g
         id="g2"><path
           style="color:#000000;fill:#ff0000;-inkscape-stroke:none"
           d="m 70,17.769531 c -1.487954,0 -2.699219,1.211265 -2.699219,2.699219 0,1.487954 1.211265,2.697266 2.699219,2.697266 1.487954,0 2.697266,-1.209312 2.697266,-2.697266 0,-1.487954 -1.209312,-2.699219 -2.697266,-2.699219 z m 0,0.396485 c 1.273467,0 2.300781,1.029267 2.300781,2.302734 0,1.273467 -1.027314,2.300781 -2.300781,2.300781 -1.273467,0 -2.302734,-1.027314 -2.302734,-2.300781 0,-1.273467 1.029267,-2.302734 2.302734,-2.302734 z"
           id="path3-5" /><path
           style="color:#000000;fill:#ff0000;-inkscape-stroke:none"
           d="m 20.46875,-71.738281 c -0.210323,0 -0.386719,0.174443 -0.386719,0.384765 v 2.707032 c 0,0.210322 0.176396,0.386718 0.386719,0.386718 0.210323,0 0.384766,-0.176396 0.384766,-0.386718 v -2.707032 c 0,-0.210322 -0.174443,-0.384765 -0.384766,-0.384765 z"
           id="rect4-1-70"
           transform="rotate(90)" /></g><text
         xml:space="preserve"
         style="font-style:normal;font-variant:normal;font-weight:900;font-stretch:normal;font-size:4.23333px;font-family:'Titillium Web';-inkscape-font-specification:'Titillium Web Heavy';text-align:center;text-anchor:middle;fill:#ff0000;fill-opacity:1;stroke:none;stroke-width:1.74279;stroke-dasharray:none"
         x="74.911087"
         y="25.34841"
         id="text4-4"
         transform="scale(0.93368939,1.07102)"><tspan
           sodipodi:role="line"
           id="tspan4-56"
           style="font-style:normal;font-variant:normal;font-weight:600;font-stretch:normal;font-size:4.23333px;font-family:'Titillium Web';-inkscape-font-specification:'Titillium Web Semi-Bold';fill:#ff0000;fill-opacity:1;stroke:none;stroke-width:1.74279"
           x="74.911087"
           y="25.34841">3.0</tspan></text></g><g
       id="g6"
       transform="translate(0,0.02877039)"><g
         id="g4"><path
           style="color:#000000;fill:#ff0000;-inkscape-stroke:none"
           d="m 70,42.744141 c -1.487954,0 -2.699219,1.211264 -2.699219,2.699218 0,1.487954 1.211265,2.699219 2.699219,2.699219 1.487954,0 2.697266,-1.211265 2.697266,-2.699219 0,-1.487954 -1.209312,-2.699218 -2.697266,-2.699218 z m 0,0.398437 c 1.273467,0 2.300781,1.027314 2.300781,2.300781 0,1.273467 -1.027314,2.300782 -2.300781,2.300782 -1.273467,0 -2.302734,-1.027315 -2.302734,-2.300782 0,-1.273467 1.029267,-2.300781 2.302734,-2.300781 z"
           id="path3-0-1" /><path
           style="color:#000000;fill:#ff0000;-inkscape-stroke:none"
           d="m 45.443359,-71.738281 c -0.210322,0 -0.386718,0.174443 -0.386718,0.384765 v 2.707032 c 0,0.210322 0.176396,0.386718 0.386718,0.386718 0.210323,0 0.386719,-0.176396 0.386719,-0.386718 v -2.707032 c 0,-0.210322 -0.176396,-0.384765 -0.386719,-0.384765 z"
           id="rect4-1-3-7"
           transform="rotate(90)" /></g><text
         xml:space="preserve"
         style="font-style:normal;font-variant:normal;font-weight:900;font-stretch:normal;font-size:4.23333px;font-family:'Titillium Web';-inkscape-font-specification:'Titillium Web Heavy';text-align:center;text-anchor:middle;fill:#ff0000;fill-opacity:1;stroke:none;stroke-width:1.74279;stroke-dasharray:none"
         x="74.94072"
         y="48.690449"
         id="text4-1-0"
         transform="scale(0.93368939,1.07102)"><tspan
           sodipodi:role="line"
           id="tspan4-4-9"
           style="font-style:normal;font-variant:normal;font-weight:600;font-stretch:normal;font-size:4.23333px;font-family:'Titillium Web';-inkscape-font-specification:'Titillium Web Semi-Bold';fill:#ff0000;fill-opacity:1;stroke:none;stroke-width:1.74279"
           x="74.94072"
           y="48.690449">2.5</tspan></text></g><g
       id="g7"
       transform="translate(6.4203691e-7,-0.00363729)"><path
         style="color:#000000;fill:#ff0000;-inkscape-stroke:none"
         d="m 70,67.744141 c -1.487954,0 -2.699219,1.211264 -2.699219,2.699218 0,1.487954 1.211265,2.699219 2.699219,2.699219 1.487954,0 2.697266,-1.211265 2.697266,-2.699219 0,-1.487954 -1.209312,-2.699218 -2.697266,-2.699218 z m 0,0.398437 c 1.273467,0 2.300781,1.027314 2.300781,2.300781 0,1.273467 -1.027314,2.300782 -2.300781,2.300782 -1.273467,0 -2.302734,-1.027315 -2.302734,-2.300782 0,-1.273467 1.029267,-2.300781 2.302734,-2.300781 z"
         id="path3-2-5" /><path
         style="color:#000000;fill:#ff0000;-inkscape-stroke:none"
         d="m 70.443359,-71.738281 c -0.210322,0 -0.386718,0.174443 -0.386718,0.384765 v 2.707032 c 0,0.210322 0.176396,0.386718 0.386718,0.386718 0.210323,0 0.386719,-0.176396 0.386719,-0.386718 v -2.707032 c 0,-0.210322 -0.176396,-0.384765 -0.386719,-0.384765 z"
         id="rect4-1-4-3"
         transform="rotate(90)" /><text
         xml:space="preserve"
         style="font-style:normal;font-variant:normal;font-weight:900;font-stretch:normal;font-size:4.23333px;font-family:'Titillium Web';-inkscape-font-specification:'Titillium Web Heavy';text-align:center;text-anchor:middle;fill:#ff0000;fill-opacity:1;stroke:none;stroke-width:1.74279;stroke-dasharray:none"
         x="74.89415"
         y="72.093201"
         id="text4-8-2"
         transform="scale(0.93368939,1.07102)"><tspan
           sodipodi:role="line"
           id="tspan4-5-3"
           style="font-style:normal;font-variant:normal;font-weight:600;font-stretch:normal;font-size:4.23333px;font-family:'Titillium Web';-inkscape-font-specification:'Titillium Web Semi-Bold';fill:#ff0000;fill-opacity:1;stroke:none;stroke-width:1.74279"
           x="74.89415"
           y="72.093201">2.0</tspan></text></g><g
       id="g8"
       transform="translate(-1.7006663e-6,0.0245958)"><path
         style="color:#000000;fill:#ff0000;-inkscape-stroke:none"
         d="m 70,92.744141 c -1.487954,0 -2.699219,1.211264 -2.699219,2.699218 0,1.487954 1.211265,2.699219 2.699219,2.699219 1.487954,0 2.697266,-1.211265 2.697266,-2.699219 0,-1.487954 -1.209312,-2.699218 -2.697266,-2.699218 z m 0,0.398437 c 1.273467,0 2.300781,1.027314 2.300781,2.300781 0,1.273467 -1.027314,2.300782 -2.300781,2.300782 -1.273467,0 -2.302734,-1.027315 -2.302734,-2.300782 0,-1.273467 1.029267,-2.300781 2.302734,-2.300781 z"
         id="path3-9-6" /><path
         style="color:#000000;fill:#ff0000;-inkscape-stroke:none"
         d="m 95.443359,-71.738281 c -0.210322,0 -0.386718,0.174443 -0.386718,0.384765 v 2.707032 c 0,0.210322 0.176396,0.386718 0.386718,0.386718 0.210323,0 0.386719,-0.176396 0.386719,-0.386718 v -2.707032 c 0,-0.210322 -0.176396,-0.384765 -0.386719,-0.384765 z"
         id="rect4-1-7-1"
         transform="rotate(90)" /><text
         xml:space="preserve"
         style="font-style:normal;font-variant:normal;font-weight:900;font-stretch:normal;font-size:4.23333px;font-family:'Titillium Web';-inkscape-font-specification:'Titillium Web Heavy';text-align:center;text-anchor:middle;fill:#ff0000;fill-opacity:1;stroke:none;stroke-width:1.74279;stroke-dasharray:none"
         x="74.896271"
         y="95.382713"
         id="text4-6-8"
         transform="scale(0.93368939,1.07102)"><tspan
           sodipodi:role="line"
           id="tspan4-6-2"
           style="font-style:normal;font-variant:normal;font-weight:600;font-stretch:normal;font-size:4.23333px;font-family:'Titillium Web';-inkscape-font-specification:'Titillium Web Semi-Bold';fill:#ff0000;fill-opacity:1;stroke:none;stroke-width:1.74279"
           x="74.896271"
           y="95.382713">1.5</tspan></text></g><path
       style="fill:#ff0000;stroke-width:0.320816"
       d="m 55.74315,109.99372 c -0.10425,-7.7e-4 -0.25455,-0.0156 -0.33401,-0.0329 -0.0795,-0.0173 -0.19696,-0.058 -0.26108,-0.0905 -0.0642,-0.0325 -0.16625,-0.11216 -0.22692,-0.17703 -0.0607,-0.0649 -0.1486,-0.19396 -0.1954,-0.28689 -0.0468,-0.0929 -0.10667,-0.25682 -0.13304,-0.36419 -0.0285,-0.11614 -0.0535,-0.32 -0.0617,-0.50323 -0.008,-0.18123 -0.002,-0.40063 0.0139,-0.53307 0.0152,-0.12379 0.0482,-0.32421 0.0734,-0.44537 0.0252,-0.12117 0.0795,-0.3344 0.1206,-0.47384 0.0411,-0.13945 0.11669,-0.36016 0.16791,-0.49046 0.0512,-0.13031 0.14713,-0.33501 0.21312,-0.45488 0.066,-0.11989 0.18667,-0.30126 0.26811,-0.40307 0.0814,-0.10179 0.22592,-0.24709 0.32102,-0.32286 0.0951,-0.0758 0.24489,-0.17402 0.33284,-0.2183 0.088,-0.0443 0.23797,-0.10278 0.33337,-0.12997 0.10966,-0.0313 0.27799,-0.0544 0.45775,-0.0628 0.22133,-0.0104 0.31841,-0.005 0.4383,0.0258 0.0847,0.0216 0.2111,0.0679 0.28089,0.10296 0.0698,0.0351 0.17355,0.10481 0.23058,0.15501 0.057,0.0502 0.11372,0.0851 0.12598,0.0775 0.0122,-0.008 0.0293,-0.0457 0.0379,-0.0848 0.009,-0.0391 0.0368,-0.0823 0.0627,-0.0962 0.0303,-0.0163 0.21883,-0.0225 0.52871,-0.0176 0.43402,0.007 0.4865,0.0121 0.5314,0.0528 0.0274,0.0248 0.0498,0.0698 0.0498,0.1 0,0.0302 -0.0858,0.46298 -0.19074,0.96178 -0.1049,0.49881 -0.2962,1.41867 -0.4251,2.04413 -0.1289,0.62547 -0.24687,1.20306 -0.26214,1.28352 -0.0153,0.0805 -0.0468,0.17748 -0.07,0.21558 -0.0339,0.0557 -0.0642,0.0723 -0.15457,0.0847 -0.0619,0.008 -0.24688,0.0145 -0.4112,0.0133 -0.16432,-0.002 -0.35205,-0.009 -0.41718,-0.0178 -0.11026,-0.0146 -0.12035,-0.0216 -0.14657,-0.1018 -0.0226,-0.069 -0.0212,-0.11831 0.007,-0.24877 0.0193,-0.0894 0.17406,-0.82365 0.34392,-1.63155 0.16987,-0.8079 0.31448,-1.50712 0.32138,-1.55382 0.0118,-0.0798 0.005,-0.0902 -0.10562,-0.17166 -0.065,-0.0477 -0.18731,-0.11909 -0.27185,-0.15866 -0.0845,-0.0396 -0.20706,-0.0782 -0.27226,-0.086 -0.0808,-0.01 -0.15672,-0.002 -0.2385,0.0258 -0.0659,0.0219 -0.16823,0.0767 -0.22724,0.12177 -0.059,0.0451 -0.15444,0.1484 -0.21206,0.22963 -0.0576,0.0812 -0.13715,0.21237 -0.17675,0.29141 -0.0396,0.079 -0.10944,0.25127 -0.1552,0.38273 -0.0458,0.13145 -0.10988,0.37063 -0.14249,0.5315 -0.0326,0.16088 -0.072,0.39638 -0.0874,0.52334 -0.0155,0.12697 -0.0237,0.32421 -0.0182,0.43831 0.007,0.14665 0.023,0.22963 0.0545,0.28303 0.0246,0.0415 0.0784,0.0937 0.11968,0.11597 0.0578,0.0311 0.11264,0.0377 0.23858,0.0286 0.11193,-0.008 0.20254,-0.0316 0.28713,-0.0745 0.0679,-0.0345 0.15094,-0.0627 0.18436,-0.0627 0.0334,0 0.0661,0.0138 0.0726,0.0307 0.006,0.0169 -0.0301,0.21826 -0.0814,0.44742 -0.0512,0.22916 -0.10428,0.4374 -0.11786,0.46277 -0.0136,0.0254 -0.089,0.0804 -0.16767,0.12234 -0.0786,0.0419 -0.21516,0.0915 -0.30338,0.11019 -0.0882,0.0187 -0.24568,0.0334 -0.34992,0.0325 z m -13.94756,-0.0785 c -0.19931,0.004 -0.41314,-0.002 -0.47519,-0.0109 -0.062,-0.009 -0.12986,-0.0343 -0.15071,-0.0552 -0.0279,-0.0279 -0.0435,-0.11539 -0.0591,-0.33057 -0.0116,-0.16096 -0.0428,-0.72978 -0.0693,-1.26403 -0.0265,-0.53426 -0.0687,-1.34985 -0.0939,-1.81244 -0.0252,-0.46259 -0.0523,-0.91752 -0.0602,-1.01099 -0.0129,-0.15148 -0.009,-0.17525 0.0347,-0.21915 0.047,-0.047 0.0738,-0.0492 0.58823,-0.0488 0.29645,1.9e-4 0.55165,0.008 0.56713,0.0183 0.0155,0.01 0.0394,0.0474 0.053,0.0834 0.0173,0.0455 0.018,0.40349 0.002,1.17228 -0.0124,0.60871 -0.0284,1.2446 -0.0356,1.41308 -0.007,0.16848 -0.009,0.30175 -0.003,0.29615 0.005,-0.005 0.15365,-0.34602 0.32932,-0.75648 0.17567,-0.41046 0.44315,-1.0235 0.5944,-1.36229 0.15126,-0.33879 0.29817,-0.66188 0.32649,-0.71797 0.0284,-0.0561 0.0714,-0.11266 0.0958,-0.12568 0.0268,-0.0144 0.24362,-0.0209 0.55035,-0.0165 0.46049,0.007 0.51062,0.0113 0.55644,0.0528 l 0.0504,0.0456 -0.006,1.38063 c -0.004,0.75935 -6e-5,1.37317 0.008,1.36404 0.008,-0.009 0.0521,-0.11254 0.0983,-0.22983 0.0462,-0.11726 0.14778,-0.35714 0.22565,-0.53306 0.0779,-0.17592 0.31442,-0.69299 0.52566,-1.14906 0.21125,-0.45607 0.40477,-0.85054 0.43004,-0.8766 0.0449,-0.0463 0.0814,-0.0475 1.62238,-0.0538 1.05531,-0.005 1.60724,0.002 1.66964,0.0186 0.0595,0.016 0.0945,0.0398 0.0968,0.0656 0.002,0.0223 7.7e-4,0.0726 -0.002,0.11163 -0.003,0.0391 -0.0785,0.40691 -0.16762,0.81737 -0.0891,0.41047 -0.29511,1.34333 -0.45782,2.07304 -0.16272,0.72972 -0.30804,1.38724 -0.32294,1.46117 -0.0149,0.0739 -0.0441,0.14855 -0.065,0.16584 -0.029,0.0241 -0.16413,0.0314 -0.57831,0.0314 -0.46463,0 -0.54576,-0.005 -0.57846,-0.0381 -0.0331,-0.0331 -0.0344,-0.058 -0.0107,-0.18954 0.015,-0.0833 0.19157,-0.90312 0.39236,-1.82177 0.20079,-0.91866 0.37075,-1.69446 0.3777,-1.72401 l 0.0126,-0.0537 -0.58693,0.006 -0.58693,0.006 -0.76288,1.44521 c -0.41959,0.79487 -0.86639,1.6403 -0.99288,1.87876 -0.12792,0.24112 -0.25199,0.44595 -0.27957,0.46149 -0.0345,0.0195 -0.20342,0.0267 -0.55708,0.0236 -0.41389,-0.004 -0.51404,-0.0109 -0.54284,-0.0397 -0.0233,-0.0233 -0.0393,-0.10232 -0.0469,-0.23201 -0.006,-0.10818 7.7e-4,-0.69778 0.0165,-1.31021 0.0155,-0.61245 0.0337,-1.15617 0.0404,-1.2083 0.008,-0.0579 0.004,-0.0856 -0.009,-0.0711 -0.0119,0.013 -0.17183,0.35419 -0.35541,0.75814 -0.18359,0.40395 -0.46554,1.02162 -0.62657,1.37261 -0.20748,0.45222 -0.31106,0.65179 -0.35549,0.68496 -0.055,0.0411 -0.10715,0.0476 -0.42507,0.0531 z m 8.42335,0.002 c -0.24539,0.002 -0.49755,-0.004 -0.56035,-0.0131 -0.0628,-0.009 -0.12394,-0.0324 -0.13587,-0.0512 -0.0119,-0.0188 -0.0219,-0.0522 -0.022,-0.0741 -1.9e-4,-0.0219 0.0484,-0.26179 0.10801,-0.53307 0.0596,-0.27129 0.32042,-1.43145 0.57957,-2.57814 0.25917,-1.14669 0.51951,-2.31411 0.57854,-2.59427 0.059,-0.28016 0.11799,-0.54762 0.13098,-0.59436 0.013,-0.0468 0.0424,-0.10182 0.0653,-0.12241 0.0251,-0.0226 0.26092,-0.0814 0.59341,-0.14816 0.46319,-0.093 0.55778,-0.10573 0.58936,-0.0795 0.0303,0.0251 0.0349,0.0615 0.0237,0.18576 -0.008,0.085 -0.0778,0.42641 -0.15581,0.75869 -0.078,0.33228 -0.19482,0.82802 -0.25955,1.10163 -0.0647,0.27362 -0.1158,0.49939 -0.11346,0.50173 0.002,0.002 0.0841,-0.0653 0.18168,-0.15014 0.0976,-0.0849 0.24674,-0.19546 0.33144,-0.24567 0.0847,-0.0502 0.23759,-0.11914 0.33975,-0.1532 0.10686,-0.0356 0.26849,-0.0677 0.38056,-0.0756 0.10973,-0.008 0.26657,-0.002 0.35915,0.0139 0.0904,0.0153 0.22985,0.0594 0.30989,0.0982 0.08,0.0388 0.18521,0.11444 0.23372,0.16813 0.0485,0.0537 0.113,0.15221 0.14332,0.21892 0.0303,0.0667 0.0679,0.19532 0.0834,0.28577 0.017,0.0988 0.0224,0.24769 0.0135,0.37277 -0.008,0.11456 -0.0317,0.29109 -0.0525,0.39229 -0.0207,0.1012 -0.19153,0.82901 -0.37958,1.61736 -0.18806,0.78835 -0.35381,1.47847 -0.36834,1.5336 -0.0146,0.0552 -0.0428,0.11377 -0.0627,0.13031 -0.0269,0.0223 -0.17207,0.03 -0.56203,0.03 -0.41082,0 -0.53433,-0.007 -0.56493,-0.0325 -0.0251,-0.0208 -0.0391,-0.0684 -0.0391,-0.13243 0,-0.0549 0.0806,-0.42413 0.179,-0.82039 0.0985,-0.39627 0.22722,-0.92306 0.28617,-1.17063 0.0589,-0.24759 0.14362,-0.62607 0.18816,-0.84107 0.0445,-0.21501 0.081,-0.42823 0.081,-0.47384 2e-5,-0.0456 -0.0186,-0.11948 -0.0414,-0.16416 -0.0228,-0.0447 -0.0703,-0.10243 -0.10566,-0.12833 -0.0468,-0.0343 -0.10188,-0.0471 -0.20247,-0.0471 -0.0985,0 -0.17683,0.0176 -0.27267,0.0616 -0.074,0.0339 -0.1844,0.11284 -0.24565,0.17571 -0.0612,0.0628 -0.14533,0.16747 -0.18703,0.23263 -0.0417,0.0652 -0.10841,0.18313 -0.14824,0.26217 -0.0398,0.079 -0.10925,0.24963 -0.15425,0.37907 -0.045,0.12945 -0.12482,0.40595 -0.17735,0.61443 -0.0525,0.20849 -0.17865,0.74519 -0.28028,1.19267 -0.10163,0.44748 -0.19771,0.83129 -0.21351,0.85291 -0.0248,0.034 -0.0894,0.0398 -0.47488,0.0431 z m -1.21679,-5.28549 c -0.13742,0.008 -0.21128,-6.4e-4 -0.32991,-0.0393 -0.12691,-0.0414 -0.17978,-0.0769 -0.31145,-0.20851 -0.13664,-0.13664 -0.16549,-0.18094 -0.20845,-0.32001 -0.0274,-0.0888 -0.0498,-0.21248 -0.0498,-0.27489 0,-0.0624 0.0214,-0.18286 0.0476,-0.26767 0.0339,-0.10978 0.0787,-0.18878 0.15554,-0.27423 0.069,-0.0768 0.16476,-0.14802 0.26574,-0.19775 0.14307,-0.0705 0.17783,-0.0777 0.37195,-0.0777 0.19425,0 0.22887,0.007 0.37271,0.078 0.0941,0.0463 0.19388,0.11853 0.24544,0.17769 0.0478,0.0548 0.1125,0.15462 0.14382,0.22176 0.0313,0.0671 0.0634,0.19114 0.0713,0.27557 0.0112,0.11998 0.003,0.19031 -0.0369,0.32208 -0.0346,0.11385 -0.0841,0.20898 -0.15244,0.29304 -0.0694,0.0853 -0.1495,0.14913 -0.25466,0.20289 -0.1216,0.0622 -0.19013,0.0806 -0.33048,0.0891 z"
       id="path16"
       sodipodi:nodetypes="scssssscssssssssccssccsssssssssccscssssscssssssccscsscssssssccsscsscssssccsssccsccsssssccccssscssssscccssscsccccsssccsccssssssssssssssscccssssssssscssssssssssssssssssccssssssscsssssscc" /></g></svg>
